<svg width="62" height="48" viewBox="0 0 62 48" fill="none" xmlns="http://www.w3.org/2000/svg">
<path d="M52.4996 33.95H9.49961C8.31711 33.95 7.34961 32.9825 7.34961 31.8V8.15C7.34961 6.9675 8.31711 6 9.49961 6H52.4996C53.6821 6 54.6496 6.9675 54.6496 8.15V31.8C54.6496 32.9825 53.6821 33.95 52.4996 33.95Z" fill="#19AD58"/>
<path d="M47.1237 25.3499C44.6512 25.3499 42.3937 26.5324 41.1037 28.4674C40.0287 27.9299 38.8462 27.4999 37.4487 27.4999C33.6862 27.4999 30.5687 30.2949 30.0312 33.9499H52.4987C53.5737 33.9499 54.4337 33.1974 54.6487 32.1224C54.2187 28.3599 50.9937 25.3499 47.1237 25.3499Z" fill="#0D8944"/>
<path d="M48.2 31.8H13.8C13.8 29.435 11.865 27.5 9.5 27.5V12.45C11.865 12.45 13.8 10.515 13.8 8.14996H48.2C48.2 10.515 50.135 12.45 52.5 12.45V27.5C50.135 27.5 48.2 29.435 48.2 31.8Z" fill="#47CA57"/>
<path d="M47.1252 25.3499C44.6527 25.3499 42.3952 26.5324 41.1052 28.4674C40.0302 27.9299 38.8477 27.4999 37.4502 27.4999C34.4402 27.4999 31.8602 29.2199 30.6777 31.7999H48.2002C48.2002 29.4349 50.0277 27.6074 52.3927 27.4999C50.9952 26.2099 49.1677 25.3499 47.1252 25.3499Z" fill="#0E9347"/>
<path d="M31.0004 29.65C35.75 29.65 39.6004 25.3183 39.6004 19.975C39.6004 14.6316 35.75 10.3 31.0004 10.3C26.2507 10.3 22.4004 14.6316 22.4004 19.975C22.4004 25.3183 26.2507 29.65 31.0004 29.65Z" fill="#19AD58"/>
<path d="M18.0992 22.125C19.2866 22.125 20.2492 21.1624 20.2492 19.975C20.2492 18.7876 19.2866 17.825 18.0992 17.825C16.9118 17.825 15.9492 18.7876 15.9492 19.975C15.9492 21.1624 16.9118 22.125 18.0992 22.125Z" fill="#19AD58"/>
<path d="M43.9 22.125C45.0874 22.125 46.05 21.1624 46.05 19.975C46.05 18.7876 45.0874 17.825 43.9 17.825C42.7126 17.825 41.75 18.7876 41.75 19.975C41.75 21.1624 42.7126 22.125 43.9 22.125Z" fill="#19AD58"/>
<path d="M32.0742 18.9H29.9242C29.2792 18.9 28.8492 18.47 28.8492 17.825C28.8492 17.18 29.2792 16.75 29.9242 16.75H33.1492C33.7942 16.75 34.2242 16.32 34.2242 15.675C34.2242 15.03 33.7942 14.6 33.1492 14.6H32.0742C32.0742 13.955 31.6442 13.525 30.9992 13.525C30.3542 13.525 29.9242 13.955 29.9242 14.6C28.0967 14.6 26.6992 15.9975 26.6992 17.825C26.6992 19.6525 28.0967 21.05 29.9242 21.05H32.0742C32.7192 21.05 33.1492 21.48 33.1492 22.125C33.1492 22.77 32.7192 23.2 32.0742 23.2H28.8492C28.2042 23.2 27.7742 23.63 27.7742 24.275C27.7742 24.92 28.2042 25.35 28.8492 25.35H29.9242C29.9242 25.995 30.3542 26.425 30.9992 26.425C31.6442 26.425 32.0742 25.995 32.0742 25.35C33.9017 25.35 35.2992 23.9525 35.2992 22.125C35.2992 20.2975 33.9017 18.9 32.0742 18.9Z" fill="#55E466"/>
<path d="M35.3004 42.5501C39.4563 42.5501 42.8254 39.181 42.8254 35.0251C42.8254 30.8691 39.4563 27.5001 35.3004 27.5001C31.1444 27.5001 27.7754 30.8691 27.7754 35.0251C27.7754 39.181 31.1444 42.5501 35.3004 42.5501Z" fill="#FFCA5D"/>
<path d="M44.9742 40.3999C49.1302 40.3999 52.4992 37.0309 52.4992 32.8749C52.4992 28.719 49.1302 25.3499 44.9742 25.3499C40.8183 25.3499 37.4492 28.719 37.4492 32.8749C37.4492 37.0309 40.8183 40.3999 44.9742 40.3999Z" fill="#F6B545"/>
<path d="M44.9742 25.3499C40.7817 25.3499 37.4492 28.6824 37.4492 32.8749C37.4492 37.0674 40.7817 40.3999 44.9742 40.3999C49.1667 40.3999 52.4992 37.0674 52.4992 32.8749C52.4992 28.6824 49.1667 25.3499 44.9742 25.3499ZM44.9742 38.2499C41.9642 38.2499 39.5992 35.8849 39.5992 32.8749C39.5992 29.8649 41.9642 27.4999 44.9742 27.4999C47.9842 27.4999 50.3492 29.8649 50.3492 32.8749C50.3492 35.8849 47.9842 38.2499 44.9742 38.2499Z" fill="#FFCB5B"/>
<path d="M44.9746 40.2925C49.1671 40.4 52.4996 36.96 52.4996 32.875H52.3921C51.8546 32.875 51.4246 33.305 51.3171 33.8425C51.1021 35.3475 50.3496 36.745 49.2746 37.7125C48.4146 38.5725 47.2321 39.11 45.9421 39.325C45.4046 39.325 44.9746 39.755 44.9746 40.2925Z" fill="#F6B545"/>
<path d="M44.9742 25.4574C40.7817 25.3499 37.4492 28.7899 37.4492 32.8749H37.5567C38.0942 32.8749 38.5242 32.4449 38.6317 31.9074C38.8467 30.4024 39.5992 29.0049 40.6742 28.0374C41.5342 27.1774 42.7167 26.6399 44.0067 26.4249C44.5442 26.4249 44.9742 25.9949 44.9742 25.4574Z" fill="#FFE27A"/>
<path d="M40.3521 33.6276C40.3521 30.6176 42.7171 28.2526 45.7271 28.2526C47.0171 28.2526 48.1996 28.6826 49.1671 29.5426C48.0921 28.2526 46.6946 27.5001 44.9746 27.5001C41.9646 27.5001 39.5996 29.8651 39.5996 32.8751C39.5996 34.5951 40.3521 35.9926 41.5346 36.9601C40.7821 36.1001 40.3521 34.9176 40.3521 33.6276Z" fill="#F19920"/>
<path d="M48.2005 36.2075C48.093 36.2075 47.9855 36.2075 47.878 36.1C47.663 35.885 47.663 35.5625 47.878 35.3475C48.523 34.7025 48.8455 33.735 48.8455 32.875C48.8455 32.5525 49.0605 32.3375 49.383 32.3375C49.7055 32.3375 49.9205 32.5525 49.9205 32.875C49.9205 34.0575 49.4905 35.24 48.738 36.1C48.523 36.2075 48.308 36.2075 48.2005 36.2075Z" fill="#FFCB5B"/>
<path d="M44.9754 36.1C44.3304 36.1 43.9004 35.67 43.9004 35.025V30.725C43.9004 30.08 44.3304 29.65 44.9754 29.65C45.6204 29.65 46.0504 30.08 46.0504 30.725V35.025C46.0504 35.67 45.6204 36.1 44.9754 36.1Z" fill="#F19920"/>
<path d="M39.7066 27.5C41.7491 28.79 43.3616 30.94 43.7916 33.4125C43.9902 34.8841 44.0484 38.2446 42.6931 39.9137C39.6913 38.9276 37.5566 36.123 37.5566 32.7675C37.5566 30.725 38.4166 28.8975 39.7066 27.5Z" fill="#F19920"/>
<path d="M41.5346 36.9601C40.7821 35.9926 40.2446 34.8101 40.2446 33.5201C40.2446 32.0151 40.8896 30.6176 41.9646 29.6501C41.7496 29.3276 41.5346 29.1126 41.3196 28.8976C40.2446 29.8651 39.5996 31.2626 39.5996 32.8751C39.5996 34.5951 40.3521 35.9926 41.5346 36.9601ZM43.8996 33.5201V35.0251C43.8996 35.6701 44.3296 36.1001 44.9746 36.1001C45.6196 36.1001 46.0496 35.6701 46.0496 35.0251V34.8101C45.4046 34.2726 44.6521 33.8426 43.8996 33.5201Z" fill="#E78825"/>
<path d="M48.6296 38.25C47.8771 38.7875 46.9096 39.11 45.9421 39.325C45.4046 39.4325 44.9746 39.8625 44.9746 40.4C46.4796 40.4 47.7696 39.97 48.9521 39.2175L48.6296 38.25Z" fill="#F19920"/>
<path d="M39.5992 27.6074C38.3092 29.0049 37.4492 30.8324 37.4492 32.8749H37.5567C38.0942 32.8749 38.5242 32.4449 38.6317 31.9074C38.8467 30.4024 39.5992 29.1124 40.5667 28.1449C40.2442 28.0374 39.9217 27.8224 39.5992 27.6074Z" fill="#FFCB5B"/>
<path d="M35.3004 42.5501C39.4563 42.5501 42.8254 39.181 42.8254 35.0251C42.8254 30.8691 39.4563 27.5001 35.3004 27.5001C31.1444 27.5001 27.7754 30.8691 27.7754 35.0251C27.7754 39.181 31.1444 42.5501 35.3004 42.5501Z" fill="#F6B545"/>
<path d="M35.3004 27.5001C31.1079 27.5001 27.7754 30.8326 27.7754 35.0251C27.7754 39.2176 31.1079 42.5501 35.3004 42.5501C39.4929 42.5501 42.8254 39.2176 42.8254 35.0251C42.8254 30.8326 39.4929 27.5001 35.3004 27.5001ZM35.3004 40.4001C32.2904 40.4001 29.9254 38.0351 29.9254 35.0251C29.9254 32.0151 32.2904 29.6501 35.3004 29.6501C38.3104 29.6501 40.6754 32.0151 40.6754 35.0251C40.6754 38.0351 38.3104 40.4001 35.3004 40.4001Z" fill="#FFCB5B"/>
<path d="M35.2988 42.4425C39.4913 42.55 42.8238 39.11 42.8238 35.025H42.7163C42.1788 35.025 41.7488 35.455 41.6413 35.9925C41.4263 37.4975 40.6738 38.895 39.5988 39.8625C38.7388 40.7225 37.5563 41.26 36.2663 41.475C35.7288 41.475 35.2988 41.905 35.2988 42.4425Z" fill="#F6B545"/>
<path d="M35.3004 27.6074C31.1079 27.4999 27.7754 30.9399 27.7754 35.0249H27.8829C28.4204 35.0249 28.8504 34.5949 28.9579 34.0574C29.1729 32.5524 29.9254 31.1549 31.0004 30.1874C31.8604 29.3274 33.0429 28.7899 34.3329 28.5749C34.8704 28.5749 35.3004 28.1449 35.3004 27.6074Z" fill="#FFE27A"/>
<path d="M30.6763 35.7775C30.6763 32.7675 33.0413 30.4025 36.0513 30.4025C37.3413 30.4025 38.5238 30.8325 39.4913 31.6925C38.4163 30.4025 37.0188 29.65 35.2988 29.65C32.2888 29.65 29.9238 32.015 29.9238 35.025C29.9238 36.745 30.6763 38.1425 31.8588 39.11C31.1063 38.25 30.6763 37.0675 30.6763 35.7775Z" fill="#F19920"/>
<path d="M38.5248 38.3575C38.4173 38.3575 38.3098 38.3575 38.2023 38.25C37.9873 38.035 37.9873 37.7125 38.2023 37.4975C38.8473 36.8525 39.1698 35.885 39.1698 35.025C39.1698 34.7025 39.3848 34.4875 39.7073 34.4875C40.0298 34.4875 40.2448 34.7025 40.2448 35.025C40.2448 36.2075 39.8148 37.39 39.0623 38.25C38.8473 38.3575 38.6323 38.3575 38.5248 38.3575Z" fill="#FFCB5B"/>
<path d="M35.2996 38.25C34.6546 38.25 34.2246 37.82 34.2246 37.175V32.875C34.2246 32.23 34.6546 31.8 35.2996 31.8C35.9446 31.8 36.3746 32.23 36.3746 32.875V37.175C36.3746 37.82 35.9446 38.25 35.2996 38.25Z" fill="#F19920"/>
</svg>
