<svg width="62" height="48" viewBox="0 0 62 48" fill="none" xmlns="http://www.w3.org/2000/svg">
<path d="M37.7446 36.5372H24.2539V12.2934H37.7446V36.5372Z" fill="#FF5F00"/>
<path d="M25.1101 24.4164C25.108 22.0817 25.6372 19.7771 26.6575 17.6771C27.6777 15.5772 29.1624 13.7369 30.999 12.2955C28.7246 10.5081 25.9933 9.39656 23.1171 9.08798C20.2409 8.7794 17.3359 9.2862 14.7341 10.5505C12.1322 11.8147 9.93859 13.7854 8.40379 16.2374C6.86898 18.6894 6.05494 21.5237 6.05469 24.4164C6.05524 27.3087 6.86938 30.1426 8.40408 32.5942C9.93879 35.0458 12.1322 37.0162 14.7336 38.2804C17.335 39.5446 20.2396 40.0515 23.1155 39.7433C25.9914 39.435 28.7225 38.324 30.997 36.5372C29.1609 35.0955 27.6768 33.255 26.6569 31.1551C25.6371 29.0552 25.1081 26.7508 25.1101 24.4164Z" fill="#EB001B"/>
<path d="M55.9443 24.4164C55.9441 27.3091 55.1301 30.1434 53.5952 32.5953C52.0604 35.0473 49.8668 37.018 47.265 38.2823C44.6632 39.5465 41.7582 40.0533 38.882 39.7447C36.0058 39.4362 33.2744 38.3247 31 36.5372C34.5857 33.7144 36.8889 29.3346 36.8889 24.4164C36.8889 19.4982 34.5857 15.1184 31 12.2955C33.2744 10.5081 36.0058 9.39656 38.882 9.08798C41.7582 8.7794 44.6632 9.2862 47.265 10.5505C49.8668 11.8147 52.0604 13.7854 53.5952 16.2374C55.1301 18.6894 55.9441 21.5237 55.9443 24.4164Z" fill="#F79E1B"/>
</svg>
