<svg width="62" height="48" viewBox="0 0 62 48" fill="none" xmlns="http://www.w3.org/2000/svg">
<path d="M15.4919 24.2249L14.129 17.6361C14.0334 17.2519 13.7997 16.9162 13.4725 16.6931C13.1453 16.4701 12.7475 16.3751 12.3548 16.4265H6.04839L6 16.741C10.9032 17.9184 14.1452 20.7732 15.4919 24.2249ZM20.0726 16.5716L16.0887 26.741L15.6774 25.2087C14.3793 22.6837 12.4304 20.5511 10.0323 19.0313L13.6694 31.4587H17.9677L24.371 16.5716H20.0726ZM26.0242 16.5716L23.4839 31.491H27.5161L30.0645 16.5716H26.0242ZM52.7097 16.5716H49.5484C49.1061 16.514 48.6572 16.6046 48.272 16.8294C47.8867 17.0541 47.5869 17.4002 47.4194 17.8136L41.4113 31.4749H45.6774C45.6774 31.4749 46.371 29.6361 46.5323 29.2329H51.7339C51.8548 29.749 52.2258 31.4587 52.2258 31.4587H56L52.7097 16.5716ZM47.7016 26.1845C48.0403 25.3297 49.3145 22.0152 49.3145 22.0152C49.3145 22.0152 49.6532 21.1603 49.8548 20.5958L50.1371 21.8781L51.0726 26.1845H47.7016ZM38.2581 22.5474C36.8468 21.8619 35.9758 21.3942 35.9839 20.7007C35.9919 20.0071 36.7177 19.4184 38.3065 19.4184C39.3491 19.3906 40.3857 19.5858 41.3468 19.991L41.7177 20.1603L42.2661 16.9345C41.1005 16.5123 39.8687 16.302 38.629 16.3136C34.5968 16.3136 31.7823 18.3297 31.7581 21.2329C31.7581 23.37 33.7742 24.5716 35.3145 25.2652C36.8548 25.9587 37.4516 26.4668 37.4516 27.12C37.4516 28.12 36.1855 28.5797 35.0323 28.5797C33.7128 28.6101 32.4044 28.3341 31.2097 27.7732L30.6855 27.5313L30.1129 30.87C31.5625 31.4106 33.0981 31.6838 34.6452 31.6765C38.9113 31.6765 41.6855 29.6765 41.7177 26.5797C41.7097 24.9023 40.629 23.6119 38.2581 22.5474Z" fill="#273991"/>
<path d="M14.129 17.6361C14.0334 17.2519 13.7997 16.9162 13.4725 16.6931C13.1453 16.47 12.7475 16.3751 12.3548 16.4265H6.04839L6 16.741C10.9032 17.9265 14.1452 20.7732 15.4919 24.2329L14.129 17.6361Z" fill="#F99F1B"/>
</svg>
